# This file is brought to you by ROBLOX Corporation
# Generated by ROBLOX Studio

mtllib baseplate.mtl

g Baseplate1

v 282.8 -2.2 -235 
v 282.8 -2.2 268.2 
v 282.8 -50.8 -235 
v 282.8 -50.8 268.2 
v -244.2 -2.2 268.2 
v 282.8 -2.2 268.2 
v -244.2 -2.2 -235 
v 282.8 -2.2 -235 
v 282.8 -2.2 268.2 
v -244.2 -2.2 268.2 
v 282.8 -50.8 268.2 
v -244.2 -50.8 268.2 
v -244.2 -2.2 268.2 
v -244.2 -2.2 -235 
v -244.2 -50.8 268.2 
v -244.2 -50.8 -235 
v -244.2 -50.8 -235 
v 282.8 -50.8 -235 
v -244.2 -50.8 268.2 
v 282.8 -50.8 268.2 
v -244.2 -2.2 -235 
v 282.8 -2.2 -235 
v -244.2 -50.8 -235 
v 282.8 -50.8 -235 

vn 1 0 0 
vn 1 0 0 
vn 1 0 0 
vn 1 0 0 
vn 0 1 0 
vn 0 1 0 
vn 0 1 0 
vn 0 1 0 
vn 0 0 1 
vn 0 0 1 
vn 0 0 1 
vn 0 0 1 
vn -1 0 0 
vn -1 0 0 
vn -1 0 0 
vn -1 0 0 
vn 0 -1 0 
vn 0 -1 0 
vn 0 -1 0 
vn 0 -1 0 
vn 0 0 -1 
vn 0 0 -1 
vn 0 0 -1 
vn 0 0 -1 

vt 123.213 54.0477 
vt 47.733 54.0477 
vt 123.213 46.7577 
vt 47.733 46.7577 
vt 126.783 54.0477 
vt 47.733 54.0477 
vt 126.783 -21.4323 
vt 47.733 -21.4323 
vt 126.783 54.0477 
vt 47.733 54.0477 
vt 126.783 46.7577 
vt 47.733 46.7577 
vt 123.213 54.0477 
vt 47.733 54.0477 
vt 123.213 46.7577 
vt 47.733 46.7577 
vt 126.783 54.0477 
vt 47.733 54.0477 
vt 126.783 -21.4323 
vt 47.733 -21.4323 
vt 126.783 54.0477 
vt 47.733 54.0477 
vt 126.783 46.7577 
vt 47.733 46.7577 

usemtl Baseplate1Mtl

f 1/1/1 2/2/2 3/3/3 
f 3/3/3 2/2/2 4/4/4 
f 5/5/5 6/6/6 7/7/7 
f 7/7/7 6/6/6 8/8/8 
f 9/9/9 10/10/10 11/11/11 
f 11/11/11 10/10/10 12/12/12 
f 13/13/13 14/14/14 15/15/15 
f 15/15/15 14/14/14 16/16/16 
f 17/17/17 18/18/18 19/19/19 
f 19/19/19 18/18/18 20/20/20 
f 21/21/21 22/22/22 23/23/23 
f 23/23/23 22/22/22 24/24/24 

